<?xml version="1.0" encoding="UTF-8"?>
<svg width="1039px" height="1039px" viewBox="0 0 1039 1039" version="1.1" xmlns="http://www.w3.org/2000/svg" xmlns:xlink="http://www.w3.org/1999/xlink">
    <title>Group 3</title>
    <g id="Page-1" stroke="none" stroke-width="1" fill="none" fill-rule="evenodd">
        <g id="Group-3">
            <rect id="Rectangle" fill="#F5F5F5" x="0" y="0" width="1039" height="1039" rx="10"></rect>
            <g id="系列" transform="translate(250.000000, 250.000000)" fill="#3C5263" fill-rule="nonzero">
                <path d="M492.690489,117.306234 L70.2722888,117.130481 C44.3875129,117.130481 23.4006293,96.1422718 23.4006293,70.2552078 C23.4006293,44.3676145 44.3875129,23.3788758 70.2722888,23.3788758 L480.714923,23.3206443 C483.608771,23.2385909 486.468213,22.1486037 488.68293,19.945866 C493.264283,15.3635789 493.264283,7.95706546 488.68293,3.37530766 C486.479858,1.17204065 483.608771,0.0820534327 480.714393,0 L68.1279722,0.0582314684 C30.537059,1.19533323 0.375295109,31.7705598 0,69.5521952 L0,469.413395 C0.375295109,507.804344 31.5094386,538.835893 69.956808,539 L492.374479,538.988354 C518.106808,538.847539 538.95289,517.987969 539,492.217897 L539,164.135452 C538.987825,138.435787 518.294191,117.622802 492.690489,117.306764 L492.690489,117.306234 Z M515.55226,492.135844 C515.55226,505.073817 505.052467,515.57401 492.116166,515.57401 L70.2717595,515.57401 C44.3875129,515.57401 23.4006293,494.585271 23.4006293,468.698207 L23.4006293,122.556595 C35.2592137,133.209248 53.2230925,139.970981 70.2722888,140.568647 L492.116166,140.685639 C505.052996,140.685639 515.55226,151.185832 515.55226,164.123276 L515.55226,492.135844 L515.55226,492.135844 Z M58.5539769,70.2552078 C58.5539769,76.7241946 63.7916992,81.9740262 70.2717595,81.9740262 L504.149959,81.9152653 C507.044336,81.8332119 509.903248,80.7432247 512.117966,78.540487 C516.699848,73.9581998 516.699848,66.5516864 512.117966,61.9699286 C509.914894,59.7666616 507.044336,58.6766744 504.149959,58.594621 L70.2717595,58.5363895 C63.7916992,58.5363895 58.5539769,63.7862211 58.5539769,70.2552078 L58.5539769,70.2552078 Z" id="Shape"></path>
            </g>
        </g>
    </g>
</svg>