<?xml version="1.0" encoding="UTF-8"?>
<svg width="1039px" height="1039px" viewBox="0 0 1039 1039" version="1.1" xmlns="http://www.w3.org/2000/svg" xmlns:xlink="http://www.w3.org/1999/xlink">
    <title>Group 10</title>
    <g id="Page-1" stroke="none" stroke-width="1" fill="none" fill-rule="evenodd">
        <g id="Group-10">
            <rect id="Rectangle" fill="#F5F5F5" x="0" y="0" width="1039" height="1039" rx="10"></rect>
            <g id="礼物" transform="translate(250.000000, 251.000000)" fill="#D47A21" fill-rule="nonzero">
                <path d="M514.51501,102.696725 L364.181497,102.696725 C374.874851,91.7953193 381.471252,76.9274145 381.471252,60.5245082 C381.471252,27.0974293 354.12394,0 320.388463,0 C296.640924,0 276.073606,13.4388076 265.968612,33.0508712 C255.863617,13.4388076 235.295683,0 211.546913,0 C177.812051,0 150.46474,27.0974287 150.46474,60.5245082 C150.46474,76.9274145 157.060525,91.7959349 167.753879,102.696725 L24.4862222,102.696725 C10.9625827,102.696725 0,114.229249 0,128.458032 L0,175.079476 C0,189.306411 10.9625821,200.840166 24.4862222,200.840166 L32.5384281,200.840166 C32.1114826,203.993293 31.8712099,207.219074 31.8712099,210.513202 L31.8712099,475.364725 C31.8712099,509.405681 55.3821724,537 84.3836675,537 L453.600411,537 C482.601906,537 506.112253,509.406297 506.112253,475.364725 L506.112253,210.513202 C506.112253,207.219074 505.87198,203.993293 505.445034,200.840166 L514.51501,200.840166 C528.036801,200.840166 539,189.307027 539,175.079476 L539,128.458032 C539,114.229865 528.036801,102.696725 514.51501,102.696725 Z M251.71553,503.760717 C251.71553,503.760717 92.3397648,503.760717 82.1897958,503.760717 C72.0398268,503.760717 65.1286067,497.198939 65.1286067,486.926803 C65.1286067,476.655284 65.1286067,369.377567 65.1286067,369.377567 L251.71553,369.377567 L251.71553,503.760717 Z M251.71553,335.424042 L65.1286073,335.424042 L65.1286073,201.041508 L251.71553,201.041508 L251.71553,335.424042 Z M472.278818,486.711915 C472.278818,495.272336 462.920516,503.760101 455.146164,503.760101 C447.371811,503.760101 285.692512,503.760101 285.692512,503.760101 L285.692512,369.377566 L472.278818,369.377566 C472.278818,369.377566 472.278818,478.153341 472.278818,486.711915 Z M472.278818,335.424042 L285.693128,335.424042 L285.693128,201.041508 L472.278818,201.041508 L472.278818,335.424042 Z M320.388463,24.5372454 C340.448128,24.5372454 356.707177,40.6489139 356.707177,60.5245076 C356.707177,80.3994858 340.447512,96.5105387 320.388463,96.5105387 C300.331262,96.5105387 284.070365,80.3988703 284.070365,60.5245076 C284.070365,40.6489145 300.331878,24.5372454 320.388463,24.5372454 Z M265.968612,87.9975291 C268.763165,93.4220641 272.360474,98.3706436 276.602206,102.696725 L255.334402,102.696725 C259.574901,98.370643 263.173443,93.4220635 265.968612,87.9975291 Z M211.546913,24.5372454 C231.60473,24.5372454 247.865627,40.6489139 247.865627,60.5245076 C247.865627,80.3994858 231.60473,96.5105387 211.546913,96.5105387 C191.489096,96.5105387 175.228199,80.3988703 175.228199,60.5245076 C175.228199,40.6489145 191.489712,24.5372454 211.546913,24.5372454 Z M506.844159,154.477942 C506.844159,159.440068 503.201876,168.599588 491.248016,168.599588 L46.0251029,168.599588 C34.0724747,168.599588 30.4295758,159.440683 30.4295758,154.477942 L30.4295758,147.631699 C30.4295758,142.669573 34.0724753,134.366525 46.0251029,134.366525 L491.2474,134.366525 C503.20126,134.366525 506.844159,142.669574 506.844159,147.631699 L506.844159,154.477942 L506.844159,154.477942 Z" id="Shape"></path>
            </g>
        </g>
    </g>
</svg>