<?xml version="1.0" encoding="UTF-8"?>
<svg width="1039px" height="1039px" viewBox="0 0 1039 1039" version="1.1" xmlns="http://www.w3.org/2000/svg" xmlns:xlink="http://www.w3.org/1999/xlink">
    <title>Group 5</title>
    <g id="Page-1" stroke="none" stroke-width="1" fill="none" fill-rule="evenodd">
        <g id="Group-5">
            <rect id="Rectangle" fill="#F5F5F5" x="0" y="0" width="1039" height="1039" rx="10"></rect>
            <g id="coming-soon" transform="translate(301.000000, 250.000000)" fill="#42A0B3" fill-rule="nonzero">
                <path d="M438,523.217406 C438,514.559718 431.08776,507.417969 422.82679,507.417969 L15.1732102,507.417969 C6.8953808,507.417969 0,514.627094 0,523.217406 C0,531.858249 6.8953808,539 15.1732102,539 L422.82679,539 C431.08776,539 438,531.790875 438,523.217406 Z M406.591455,0.15159375 C406.857154,0.109645222 407.12142,0.0590873277 407.383834,0 L407.366975,0.286344013 C415.888263,1.87235539 421.817236,9.65557926 421.076864,18.2839208 C420.336493,26.9122624 413.168069,33.5736874 404.500924,33.6875002 C398.161894,87.8401567 384.472287,130.758031 365.623788,164.765563 C341.633257,207.582375 310.747344,235.004 277.585451,252.353062 C310.797922,269.196812 342.105313,297.12375 366.095843,340.883812 C388.687068,381.325656 403.877137,435.225656 406.962356,507.300062 L30.9364899,507.300062 C34.1734414,435.613062 49.8187067,381.713062 72.4267898,340.327969 C96.4173208,297.511156 127.303233,269.584219 160.465127,252.740469 C127.252656,235.391407 95.9452656,207.969781 71.9547347,164.209719 C53.4434183,130.505375 39.804388,87.8401567 33.4822171,33.6875002 L33.3810624,33.6875002 C24.5862817,33.7166182 17.246639,26.9863881 16.5232048,18.2293554 C15.7997706,9.4723227 21.9356218,1.6308871 30.6161668,0.218968487 L30.6161668,0.117905987 C30.7282223,0.136931958 30.8406375,0.153778893 30.9533487,0.168437237 C31.7457277,0.0673747368 32.5549656,0 33.3810624,0 L404.281756,0 C405.057275,0 405.832795,0.05053125 406.591455,0.168437237 L406.591455,0.15159375 Z M60.9288686,33.6875002 C66.9981527,82.0964377 79.2715941,120.348594 95.9452656,150.751562 C123.105312,200.272187 153.097691,226.750562 192.261432,239.282312 L194.115935,239.787625 C195.009469,240.276094 195.498383,240.714031 196.391917,241.219344 L197.774365,240.714031 L199.628868,243.156375 C200.287927,244.008265 200.759066,244.989866 201.011317,246.036656 C201.432795,247.047281 201.904851,248.479 201.90485,249.405406 L201.90485,254.239562 C201.90485,255.233344 201.483372,256.681906 201.011317,258.113625 C200.539262,259.056875 200.100924,260.000125 199.628868,260.993906 L198.735335,262.442469 L197.352887,263.43625 C196.442494,263.941562 195.970439,264.3795 194.587991,264.867969 L193.205543,265.811218 C153.569746,278.831437 124.066282,304.821343 96.4173215,354.847281 C85.3745966,375.00925 76.1526562,399.112656 69.2404157,427.982844 C65.1099305,446.258313 62.7665127,458.773219 61.8729797,470.294344 C89.5219407,453.450594 148.056813,441.441 215.341571,441.441 L215.341571,219.1035 C214.380601,218.665562 213.959123,218.665562 212.576674,217.671781 L208.44619,216.223219 C182.651733,207.582375 161.409238,194.073688 144.381525,176.286688 C125.499308,157.000594 111.641109,133.469875 101.980832,106.974656 C99.7048504,99.2770627 102.941802,91.5794684 109.837183,88.6991872 C116.260508,85.8189059 124.116859,89.7098122 126.864897,96.902094 C135.159585,119.506406 146.674366,139.718906 162.808545,156.057343 C176.649885,170.526124 194.638568,181.609312 215.813626,188.801593 L218.089607,189.812218 L219.472056,190.317531 L221.764896,189.812218 L223.6194,188.801593 C245.317091,182.064094 262.344804,170.526124 276.624481,156.057343 C292.286606,139.718906 304.273442,119.051625 312.55127,96.3967815 C313.78488,93.0027479 316.354149,90.2604145 319.662449,88.8065985 C322.970749,87.3527826 326.730238,87.3139748 330.067898,88.6991872 C337.435335,91.562625 340.689145,99.7823744 337.92425,106.974656 C328.263973,133.469875 313.933719,157.067968 295.523557,176.286688 C278.006929,194.073688 257.253348,207.582375 230.093303,216.223219 L226.434873,218.177094 C225.52448,218.615032 225.052425,219.120344 224.142033,219.120343 L224.142033,441.474688 C296.04619,442.485313 355.96351,456.886719 377.610624,477.099219 C376.71709,453.989594 371.608776,436.219438 370.243188,428.016531 C363.330947,399.651656 354.581063,375.110312 342.594227,353.937718 C315.417322,304.855031 285.913857,278.881969 246.750116,265.844906 L244.423557,264.9185 C243.513164,264.413188 242.61963,263.97525 242.130716,263.469937 L240.748268,262.964625 L239.854735,261.532906 C239.38268,260.589656 238.944342,260.084344 238.000231,258.652625 L237.089839,255.283875 L237.089839,249.96125 L238.472286,246.087187 L239.854735,243.190063 L242.130716,240.815094 C243.041109,240.309781 243.513164,239.871844 244.895612,239.366531 L246.750116,238.861219 C285.492379,226.346312 315.417322,199.867937 342.594227,149.842 C359.200462,119.961187 371.507622,81.9111562 377.357737,33.670656 L60.9120098,33.670656 L60.9288686,33.6875002 Z" id="Shape"></path>
            </g>
        </g>
    </g>
</svg>