<?xml version="1.0" encoding="UTF-8"?>
<svg width="1039px" height="1039px" viewBox="0 0 1039 1039" version="1.1" xmlns="http://www.w3.org/2000/svg" xmlns:xlink="http://www.w3.org/1999/xlink">
    <title>Group 9</title>
    <g id="Page-1" stroke="none" stroke-width="1" fill="none" fill-rule="evenodd">
        <g id="Group-9">
            <rect id="Rectangle" fill="#F5F5F5" x="0" y="0" width="1039" height="1039" rx="10"></rect>
            <g id="上新" transform="translate(245.000000, 250.000000)" fill="#86A548" fill-rule="nonzero">
                <path d="M275.142954,539 C188.217798,538.802274 106.36712,496.291269 56.1495548,425.307777 L56.0177501,425.110051 L55.8859455,424.912326 C49.4934207,417.003302 50.6796625,405.337491 58.5879405,398.944363 C61.8830563,396.242113 65.9030977,394.792125 70.1867483,394.792125 C75.7884452,394.792125 80.9947283,397.29665 84.5534534,401.646613 C85.0147696,402.23979 85.4760858,402.898875 85.8714997,403.55796 L85.937402,403.689777 L86.0692067,403.821595 C129.301127,465.314258 200.014313,502.025312 275.274759,502.025312 C322.988036,502.025312 368.856049,487.459526 408.067927,459.909758 C429.881594,444.553069 448.795559,425.703228 464.150799,403.821595 L464.282604,403.689777 L464.348506,403.55796 C467.775427,398.087552 473.640733,394.858034 480.033258,394.858034 C483.460178,394.858034 486.821196,395.846662 489.7868,397.626192 C494.004549,400.262534 496.904251,404.282954 498.02459,409.094277 C499.144929,413.9056 498.354102,418.848741 495.718009,423.066887 C495.322595,423.725972 494.861279,424.385057 494.399963,424.912326 L494.268158,425.110051 L494.136353,425.307777 C443.918788,496.357178 362.06811,538.802274 275.142954,539 Z M18.3875271,363.815114 C8.50217959,363.815114 0.198487654,355.774272 0.000388026527,345.822084 L0.000388026527,206.820983 C-0.0651216144,196.671069 8.17266801,188.366593 18.3216248,188.366593 C24.0551264,188.366593 29.3273118,190.937026 32.8860369,195.418807 L108.278287,291.579359 L108.278287,206.689166 C108.146483,201.746026 109.991748,197.132428 113.352766,193.573368 C116.713784,190.014307 121.326946,187.971142 126.26962,187.905234 L126.665034,187.905234 C136.550381,187.905234 144.854073,195.946075 145.05178,205.898264 L145.05178,344.899364 C145.05178,355.049279 136.813991,363.353754 126.665034,363.353754 C120.997435,363.353754 115.725249,360.783321 112.232427,356.301541 L36.7742736,260.075079 L36.7742736,344.965273 C36.9719805,355.115187 28.9318979,363.55148 18.782941,363.749205 C18.6511364,363.815114 18.5193318,363.815114 18.3875271,363.815114 L18.3875271,363.815114 Z M402.861644,363.287845 C400.489161,363.287845 398.18258,362.826486 396.007803,361.969675 C390.076595,359.596967 385.858847,354.456102 384.672605,348.128882 L384.672605,347.997065 L353.303102,210.907312 C352.182763,206.095989 353.039493,201.152849 355.609683,197.000611 C358.245776,192.848374 362.265817,189.948398 367.076686,188.827953 C368.460635,188.49841 369.844584,188.366593 371.228532,188.366593 C379.861736,188.366593 387.176893,194.232453 389.153962,202.668745 L407.540709,283.01125 L431.067836,223.759477 L431.133738,222.770849 C431.660957,216.179995 435.680998,210.314135 441.612207,207.480068 C444.116495,206.293715 446.752587,205.700538 449.520485,205.700538 L450.706726,205.700538 C452.683796,205.700538 454.594963,206.030081 456.440228,206.623258 C463.623581,208.995965 468.566254,215.323184 469.093473,222.836757 L469.159375,223.825385 L493.675037,285.581683 L512.654904,202.668745 C514.566072,194.298361 521.947131,188.366593 530.580335,188.366593 C531.964283,188.366593 533.348232,188.49841 534.732181,188.827953 C539.54305,189.948398 543.563091,192.848374 546.199184,197.000611 C548.835276,201.152849 549.626104,206.095989 548.505765,210.907312 L516.938555,348.985693 C515.027388,357.421986 507.712231,363.287845 499.079027,363.353754 L497.497372,363.353754 C489.852703,363.353754 483.130666,358.740157 480.362769,351.687943 L450.179508,275.497677 L420.325758,350.699315 L420.259856,350.831132 C418.216884,356.960626 413.208308,361.442406 406.947588,362.892394 C405.695444,363.156028 404.377398,363.287845 403.059351,363.287845 L402.861644,363.287845 L402.861644,363.287845 Z M202.123187,363.287845 C191.97423,363.287845 183.73644,354.98337 183.73644,344.833456 L183.73644,277.211299 C183.670538,276.749939 183.670538,276.288579 183.670538,275.761311 C183.670538,275.299951 183.670538,274.838591 183.73644,274.311323 L183.73644,206.755075 C183.73644,196.60516 191.97423,188.300685 202.123187,188.300685 L301.965197,188.300685 C306.907871,188.300685 311.521033,190.212032 315.013856,193.705185 C318.506679,197.198337 320.417846,201.811934 320.417846,206.755075 C320.417846,216.904989 312.114154,225.209464 301.965197,225.209464 L220.509933,225.209464 L220.509933,257.306921 L281.00826,257.306921 C291.157217,257.306921 299.460909,265.611396 299.460909,275.761311 C299.460909,285.911225 291.157217,294.215701 281.00826,294.215701 L220.509933,294.215701 L220.509933,326.379066 L301.965197,326.379066 C312.114154,326.379066 320.417846,334.683541 320.417846,344.833456 C320.417846,354.98337 312.114154,363.287845 301.965197,363.287845 L202.123187,363.287845 L202.123187,363.287845 Z M59.8400845,160.421374 C56.8744802,160.421374 53.9747783,159.696381 51.3386856,158.312301 C46.9891327,156.005503 43.7599192,152.182808 42.2441659,147.503302 C40.7943149,142.823796 41.1897288,137.814747 43.4963099,133.398875 C43.8258215,132.73979 44.2212354,132.080704 44.6825516,131.487528 L44.8143562,131.289802 L44.9461609,131.092076 C69.0664089,90.4265101 103.533321,56.8131573 144.656366,33.9428956 C184.527268,11.7317192 229.736258,0 275.406563,0 C323.317548,0 370.503607,12.9839814 411.956164,37.6337735 C450.311313,60.4381267 482.603448,92.7333089 505.40565,131.092076 C510.677835,139.857911 507.844035,151.19418 499.144929,156.466862 C496.31113,158.180484 493.016014,159.103204 489.720898,159.103204 C483.262471,159.103204 477.26536,155.67596 473.904342,150.139643 C432.517687,80.3425043 356.268706,36.9746882 274.945247,36.9746882 C233.690397,36.9746882 192.962765,48.1791392 157.243709,69.3357789 C124.028941,89.0424309 96.0863588,116.98765 76.3815661,150.205551 L76.3156638,150.337369 L76.2497614,150.469186 C73.0205479,156.598679 66.7598278,160.421374 59.8400845,160.421374 L59.8400845,160.421374 Z" id="Shape"></path>
            </g>
        </g>
    </g>
</svg>