<?xml version="1.0" encoding="UTF-8"?>
<svg width="1039px" height="1039px" viewBox="0 0 1039 1039" version="1.1" xmlns="http://www.w3.org/2000/svg" xmlns:xlink="http://www.w3.org/1999/xlink">
    <title>Group 8</title>
    <g id="Page-1" stroke="none" stroke-width="1" fill="none" fill-rule="evenodd">
        <g id="Group-8">
            <g id="Group">
                <rect id="Rectangle" fill="#F5F5F5" x="0" y="0" width="1039" height="1039" rx="10"></rect>
                <g id="冠军" transform="translate(271.000000, 258.000000)" fill="#3C5263" fill-rule="nonzero">
                    <path d="M478.596934,42.2533318 L409.380307,42.2533318 L409.380307,0.586851831 C409.380307,0.293425916 409.145873,0 408.794222,0 L88.2057783,0 C87.9127358,0 87.6196934,0.234740732 87.6196934,0.586851831 L87.6196934,42.1946467 L17.2895047,42.1946467 C7.73632075,42.1946467 0,49.9410908 0,59.5067757 L0,152.464106 C0,207.100011 40.9087264,252.052861 93.6563679,258.625602 C107.54658,309.623026 144.587146,351.817673 193.466627,370.186135 L193.466627,409.505208 L153.847288,409.505208 C148.982783,409.505208 144.528538,412.263411 142.301415,416.606115 L97.9933962,505.338112 C93.7149764,513.906149 99.9274764,524 109.539269,524 L386.581604,524 C396.134788,524 402.347288,513.964834 398.127476,505.396797 L354.639976,416.6648 C352.471462,412.263411 348.017217,409.446523 343.094104,409.446523 L303.474764,409.446523 L303.474764,370.303505 C353.057547,352.169784 391.153066,310.268563 404.222759,258.449546 C456.61875,251.524695 497,206.806585 497,152.522791 L497,60.6804793 C497,50.4692575 488.736203,42.2533318 478.596934,42.2533318 Z M33.5452931,152.717011 L33.5452931,75.9932546 L87.8642394,75.9932546 L87.8642394,214.154807 C87.8642394,217.329584 88.1001524,220.445567 88.277087,223.561551 C56.8416924,215.213066 33.5452931,186.698873 33.5452931,152.717011 L33.5452931,152.717011 Z M337.875605,444.534025 L354.416258,478.080529 C358.639404,486.613263 352.36334,496.607083 342.861263,496.607083 L154.168777,496.607083 C144.608045,496.607083 138.331982,486.55482 142.613782,478.022085 L159.447709,444.475581 C161.617937,440.150771 166.075701,437.403931 171.002704,437.403931 L326.32061,437.403931 C331.247613,437.345488 335.705378,440.150771 337.875605,444.534025 L337.875605,444.534025 Z M276.307282,409.126476 L221.575488,409.126476 L221.575488,377.490453 C225.705092,378.190881 229.834696,378.89131 234.022464,379.241524 C248.563323,380.584012 262.697038,379.708477 276.249119,377.315346 L276.249119,409.126476 L276.307282,409.126476 Z M370.705168,219.458056 C370.705168,289.633814 311.580251,346.185492 240.618631,341.722431 C175.39957,337.611717 126.236234,280.120448 126.236234,214.583924 L126.236234,39.4675146 C126.236234,39.1738922 126.470625,38.8802698 126.82221,38.8802698 L370.17779,38.8802698 C370.470778,38.8802698 370.763766,39.1151677 370.763766,39.4675146 L370.763766,219.458056 L370.705168,219.458056 Z M463.396492,152.775803 C463.396492,186.640081 440.517934,215.095482 409.605684,223.561551 C409.663899,222.209332 409.838544,220.857113 409.838544,219.446101 L409.838544,75.9932546 L463.454707,75.9932546 L463.454707,152.775803 L463.396492,152.775803 Z" id="Shape"></path>
                </g>
            </g>
        </g>
    </g>
</svg>