<?xml version="1.0" encoding="UTF-8"?>
<svg width="1039px" height="1039px" viewBox="0 0 1039 1039" version="1.1" xmlns="http://www.w3.org/2000/svg" xmlns:xlink="http://www.w3.org/1999/xlink">
    <title>Group 11</title>
    <g id="Page-1" stroke="none" stroke-width="1" fill="none" fill-rule="evenodd">
        <g id="Group-11">
            <g id="Group-4">
                <rect id="Rectangle" fill="#F5F5F5" x="0" y="0" width="1039" height="1039" rx="10"></rect>
                <g id="特价" transform="translate(250.000000, 250.000000)" fill="#42A0B3" fill-rule="nonzero">
                    <path d="M0,296.356154 C0,292.684358 1.40169487,289.012562 4.20448068,286.209797 L286.203626,4.20374998 C289.211744,1.19565488 293.388445,-0.318357247 297.620102,0.0560693665 L507.248672,18.7321065 C514.171994,19.3487026 519.656178,24.8328447 520.272779,31.7561135 L538.948959,241.383081 C539.303459,245.605647 537.799702,249.801036 534.801247,252.799469 L252.793646,534.795853 C247.188075,540.401382 238.106348,540.401382 232.500776,534.795853 L4.2050846,306.501908 C1.40169487,303.699144 0,300.027347 0,296.355551 L0,296.356154 Z M301.758755,29.24202 L34.6431816,296.356154 L242.6454,504.356781 L509.760973,237.243251 L492.747381,46.2554822 L301.758151,29.24202 L301.758755,29.24202 Z" id="Shape"></path>
                    <path d="M355,137.004798 C355,124.441917 359.887859,112.629918 368.763701,103.750678 C387.090922,85.4164407 416.909677,85.4164407 435.236299,103.750678 C444.112141,112.629918 449,124.441917 449,137.004798 C449,149.558683 444.112141,161.369482 435.236299,170.249322 C416.909078,188.583559 387.090323,188.583559 368.763701,170.249322 C359.888458,161.370082 355,149.558083 355,137.004798 Z M420.508575,137.004198 C420.508575,132.050296 418.588923,127.401064 415.091943,123.902745 C407.876162,116.684202 396.124438,116.684202 388.908657,123.902745 C381.924888,130.889187 381.906303,143.089822 388.908657,150.096055 C396.124438,157.314599 407.876162,157.314599 415.091943,150.096055 C418.588923,146.598336 420.508575,141.949704 420.508575,137.004198 Z" id="Shape"></path>
                </g>
            </g>
        </g>
    </g>
</svg>