<?xml version="1.0" encoding="UTF-8"?>
<svg width="1039px" height="1039px" viewBox="0 0 1039 1039" version="1.1" xmlns="http://www.w3.org/2000/svg" xmlns:xlink="http://www.w3.org/1999/xlink">
    <title>Group 6</title>
    <g id="Page-1" stroke="none" stroke-width="1" fill="none" fill-rule="evenodd">
        <g id="Group-6">
            <rect id="Rectangle" fill="#F5F5F5" x="0" y="0" width="1039" height="1039" rx="10"></rect>
            <g id="流行" transform="translate(308.000000, 250.000000)" fill="#D47A21" fill-rule="nonzero">
                <path d="M405.992045,243.926176 C394.247727,217.53942 377.444318,194.16485 356.063636,174.525391 L338.5375,158.440314 C335.947727,156.151052 331.852273,157.175195 330.707955,160.428357 L322.878409,182.899271 C318,196.996305 309.026136,211.394558 296.318182,225.551837 C295.475,226.455493 294.511364,226.696468 293.848864,226.756711 C293.186364,226.816955 292.1625,226.696468 291.259091,225.853055 C290.415909,225.130131 289.994318,224.045743 290.054545,222.961356 C292.282955,186.694626 281.442045,145.789129 257.7125,101.269007 C238.078409,64.2793529 210.795455,35.4226029 176.706818,15.3011947 L151.832955,0.661966648 C148.580682,-1.26583293 144.425,1.26440402 144.605682,5.05975944 L145.930682,33.9767532 C146.834091,53.7366989 144.545455,71.2073826 139.125,85.7261232 C132.5,103.498026 122.984091,120.00481 110.818182,134.824769 C102.265909,145.186692 92.6897727,154.524471 82.2102273,162.597132 C56.8545455,182.055859 35.9556818,207.418472 21.8022727,235.793272 C7.52840909,264.469291 0,296.579203 0,328.749358 C0,357.184402 5.60113636,384.71579 16.6829545,410.68084 C27.4034091,435.681991 42.7011364,458.213149 62.1545455,477.491145 C81.6681818,496.76914 104.313636,511.950562 129.548864,522.493216 C155.6875,533.457576 183.392045,539 212,539 C240.607955,539 268.3125,533.457576 294.451136,522.55346 C319.686364,512.010806 342.392045,496.889628 361.845455,477.551388 C381.359091,458.273392 396.656818,435.742235 407.317045,410.741084 C418.398864,384.776033 424,357.244646 424,328.809602 C424,299.410658 417.977273,270.855127 405.992045,243.926176 Z M333.056818,448.333176 C300.714773,480.382844 257.772727,497.974015 212,497.974015 C166.227273,497.974015 123.285227,480.382844 90.9431818,448.333176 C58.7215909,416.343752 40.9545455,373.932161 40.9545455,328.809602 C40.9545455,302.603576 46.8568182,277.481938 58.4806818,254.107368 C69.8034091,231.274992 86.6670455,210.852365 107.144318,195.12875 C120.093182,185.248777 131.957955,173.742223 142.4375,160.910307 C157.494318,142.535967 169.298864,122.053097 177.489773,100.064133 C180.742045,91.3287908 183.211364,81.9910115 184.777273,72.0507949 C199.292045,85.4249045 211.457955,101.570226 221.636364,120.486759 C241.752273,158.199339 251.027273,191.7551 249.220455,220.310632 C248.377273,234.046204 253.7375,247.119094 263.915909,256.336386 C272.769318,264.28856 284.2125,268.32489 296.077273,267.662209 C307.942045,267.059771 318.843182,261.818566 326.793182,252.962737 C334.803409,243.98642 341.729545,234.829372 347.511364,225.491593 C355.943182,236.275222 362.989773,248.022751 368.590909,260.673935 C378.167045,282.241193 383.045455,305.194057 383.045455,328.809602 C383.045455,373.932161 365.278409,416.403995 333.056818,448.333176 Z" id="Shape"></path>
            </g>
        </g>
    </g>
</svg>