<?xml version="1.0" encoding="UTF-8"?>
<svg width="1039px" height="1039px" viewBox="0 0 1039 1039" version="1.1" xmlns="http://www.w3.org/2000/svg" xmlns:xlink="http://www.w3.org/1999/xlink">
    <title>Group 7</title>
    <g id="Page-1" stroke="none" stroke-width="1" fill="none" fill-rule="evenodd">
        <g id="Group-7">
            <g id="Group-2">
                <rect id="Rectangle" fill="#F5F5F5" x="0" y="0" width="1039" height="1039" rx="10"></rect>
                <path d="M757.286346,789 L670.076569,789 C652.555619,789 638.35605,774.58819 638.35605,756.795428 L638.35605,619.92547 C638.35605,602.140099 652.556147,587.720898 670.076569,587.720898 L717.71596,587.720898 L717.71596,683.862632 L737.33482,670.677235 L757.38773,683.862632 L757.38773,587.736208 C774.846371,587.783723 789,602.178639 789,619.92547 L789,756.795428 C789,774.58819 774.807824,789 757.286346,789 L757.286346,789 Z M653.980275,438.171841 C653.438504,443.093333 652.718255,447.952 651.78943,452.732531 C651.619401,453.550316 651.418217,454.360182 651.247659,455.166352 C650.310913,459.561484 649.234765,463.882176 647.972745,468.135292 C647.748327,468.906618 647.546615,469.688502 647.306884,470.443462 C645.905462,474.953158 644.287014,479.38683 642.521771,483.719137 C642.057622,484.875334 641.577104,486.015692 641.081273,487.155523 C639.231015,491.448234 637.271981,495.67812 635.10437,499.767572 C634.786489,500.356758 634.431117,500.919018 634.105315,501.496588 C632.177963,505.045955 630.094838,508.478645 627.911914,511.863293 C627.09873,513.106073 626.3167,514.347269 625.488203,515.57421 C623.07294,519.111961 620.548901,522.563658 617.877539,525.897095 C616.979868,527.021615 616.035201,528.113931 615.113768,529.215222 C612.895539,531.85267 610.597674,534.422126 608.223353,536.920034 C607.262845,537.926295 606.326099,538.96476 605.358199,539.955711 C602.415951,542.88791 599.334827,545.687068 596.198788,548.399644 C594.925334,549.499163 593.637327,550.581719 592.335107,551.647026 C589.075506,554.296776 585.746731,556.859943 582.30126,559.257864 C582.401587,559.296404 582.518285,559.359229 582.619141,559.406744 C588.20899,561.859571 593.644122,564.564755 598.994241,567.419347 C601.355643,568.684828 603.639951,570.021582 605.962278,571.349889 C606.241084,571.507744 606.504049,571.69622 606.775463,571.853019 C606.365174,571.892615 606.000825,572.018265 605.614299,572.081619 C610.151233,576.303585 613.070247,582.310002 613.070247,589.049205 L613.271431,591.195296 C613.271431,603.837966 603.229135,614.067405 590.810651,614.193584 L590.810651,618.808341 C562.791176,600.583193 529.76217,589.607241 494.262985,588.47533 C492.245866,588.553465 490.275215,588.781009 488.247007,588.781009 C486.225663,588.781009 484.25554,588.553465 482.250566,588.47533 C387.688337,591.486193 310.643362,664.317096 299.347495,757.935259 L298.766649,757.935259 L298.794107,758.234075 C298.794107,771.576271 288.144035,782.387504 275.005302,782.387504 C261.866569,782.387504 251.216497,771.576271 251.216497,758.234075 L251,755.992954 C251,754.397507 251.154716,752.840073 251.456756,751.338601 C251.747179,749.82921 252.200239,748.366805 252.757323,746.967754 C252.792173,746.723844 252.831248,746.503164 252.869796,746.27562 C255.102884,730.87286 258.722609,715.941553 263.658743,701.623717 C263.848838,701.049842 264.061639,700.483886 264.266519,699.917931 C267.405726,691.041612 271.018059,682.400755 275.117247,674.034958 C275.40767,673.429934 275.698093,672.793234 275.999604,672.187683 C278.047878,668.091367 280.227106,664.065795 282.499797,660.103049 C283.207901,658.860269 283.962473,657.642303 284.698563,656.415361 C288.56989,649.912448 292.751703,643.599398 297.229519,637.498079 C298.452464,635.807603 299.675937,634.085978 300.949573,632.435098 C303.283517,629.399421 305.707228,626.451911 308.181104,623.526574 C310.101063,621.270143 312.106565,619.076008 314.112068,616.890321 C317.7633,612.901325 321.547623,609.036178 325.458627,605.301427 C327.932502,602.943102 330.405849,600.599559 332.980052,598.342599 C335.38053,596.243495 337.81533,594.175539 340.300822,592.178327 C343.633821,589.490038 347.051834,586.934262 350.509451,584.426001 C353.668248,582.146994 356.883621,579.947419 360.152548,577.829343 C363.671418,575.541762 367.244676,573.315951 370.879714,571.209456 C373.213659,569.864255 375.548131,568.535948 377.932767,567.26202 C383.143482,564.486619 388.419674,561.868018 393.835798,559.485936 C393.975201,559.439476 394.09929,559.360285 394.238165,559.29746 C390.76946,556.884228 387.436461,554.313142 384.169467,551.648082 C382.886875,550.616479 381.624613,549.559861 380.383408,548.478835 C377.150737,545.696043 373.995688,542.825613 370.980042,539.798911 C370.158938,538.981126 369.376908,538.100516 368.579565,537.25211 C366.080723,534.640854 363.669067,531.947568 361.348562,529.176682 C360.442971,528.099677 359.521538,527.054348 358.65027,525.945666 C355.975739,522.60431 353.424241,519.128328 351.001058,515.575266 C350.168864,514.348324 349.37469,513.106601 348.566258,511.864349 C346.409736,508.519297 344.365687,505.122506 342.445727,501.623295 C342.093523,500.998209 341.714389,500.369428 341.373802,499.728505 C339.201967,495.651723 337.258774,491.460377 335.431222,487.196175 C334.935919,486.028363 334.421078,484.860023 333.952705,483.681653 C332.210695,479.387886 330.619178,475.020735 329.22198,470.559082 C328.943174,469.674776 328.730373,468.789942 328.463184,467.905636 C327.233848,463.710314 326.160656,459.470824 325.245826,455.195917 C325.068404,454.373381 324.878309,453.579881 324.715672,452.758401 C323.767837,447.953584 323.04706,443.083302 322.50529,438.14914 C322.381728,437.020924 322.292489,435.893764 322.192161,434.76502 C321.739101,429.701511 321.432837,424.591015 321.432837,419.397632 C321.432837,325.830152 396.119578,250 488.247007,250 C580.373907,250 655.056424,325.830152 655.056424,419.397632 C655.056424,424.574649 654.754384,429.689896 654.297628,434.752349 C654.196772,435.89218 654.111757,437.032011 653.980275,438.171841 L653.980275,438.171841 Z M488.207932,298.443595 C422.404964,298.443595 369.060083,352.616437 369.060083,419.435644 C369.060083,486.259074 422.404964,540.443531 488.207932,540.443531 C554.010899,540.443531 607.347332,486.259074 607.347332,419.435644 C607.347332,352.616437 554.010371,298.443595 488.207932,298.443595 Z" id="Shape" fill="#86A548" fill-rule="nonzero"></path>
            </g>
        </g>
    </g>
</svg>